<?xml version="1.0" encoding="utf-8"?>
<!-- Generator: Adobe Illustrator 13.0.0, SVG Export Plug-In . SVG Version: 6.00 Build 14948)  -->
<!DOCTYPE svg PUBLIC "-//W3C//DTD SVG 1.1//EN" "http://www.w3.org/Graphics/SVG/1.1/DTD/svg11.dtd">
<svg version="1.1" id="Calque_1" xmlns="http://www.w3.org/2000/svg" xmlns:xlink="http://www.w3.org/1999/xlink" x="0px" y="0px"
	 width="300px" height="300px" viewBox="0 0 300 300" enable-background="new 0 0 300 300" xml:space="preserve">
<circle fill="#E74C3C" cx="149.5" cy="150" r="150"/>
<g>
	<path fill="#FFFFFF" d="M56.492,98.844c-2.969-1.041-4.453-3.723-4.453-8.047c0-3.385,6.887-6.68,20.664-9.883
		c13.775-3.203,25.793-4.805,36.055-4.805c11.354,0,20.364,2.344,27.031,7.031c6.666,4.688,10,10.912,10,18.672
		c0,11.511-6.342,21.824-19.023,30.938c-12.683,9.115-29.779,15.808-51.289,20.078c-5.678,1.146-8.867,2.098-9.57,2.852
		c-0.703,0.756-1.25,5.391-1.641,13.906s-0.586,14.441-0.586,17.773c0,2.344-0.742,4.453-2.227,6.328s-3.217,2.813-5.195,2.813
		c-4.584,0-6.875-3.1-6.875-9.297c0-3.385,0.938-12.813,2.813-28.281l5.547-46.328c0.156-0.781,0.195-3.02,0.117-6.719
		C57.781,102.178,57.325,99.834,56.492,98.844z M72.742,94.391c-0.365,1.511-0.73,4.297-1.094,8.359
		c-0.73,7.24-1.641,15.234-2.734,23.984c-0.574,4.584-1.121,9.558-1.641,14.922c17.135-2.344,32.344-7.135,45.625-14.375
		c13.281-7.239,19.922-15.182,19.922-23.828c0-10.625-8.23-15.938-24.688-15.938C97.352,87.516,85.555,89.808,72.742,94.391z"/>
	<path fill="#FFFFFF" d="M216.727,79.781c0.469,0.365,0.703,1.641,0.703,3.828c0,2.24-0.234,3.933-0.703,5.078l1.016,3.281
		c1.719,6.146,3.41,11.199,5.078,15.156c2.082,5.313,4.141,11.016,6.172,17.109c4.635,14.011,9.465,26.003,14.492,35.977
		c5.025,9.975,9.621,16.992,13.789,21.055c2.604,2.553,4.23,4.311,4.883,5.273c0.65,0.965,0.977,2.098,0.977,3.398
		c0,2.291-0.77,4.23-2.305,5.82c-1.537,1.588-3.373,2.383-5.508,2.383c-6.668,0-14.74-10.494-24.219-31.484
		c-3.803-8.281-6.094-12.422-6.875-12.422c-2.5,0-7.879,0.756-16.133,2.266c-8.256,1.512-15.795,3.281-22.617,5.313
		c-3.906,1.199-6.381,1.797-7.422,1.797c-1.303,0-2.656-0.65-4.063-1.953c-0.262-0.207-0.574-0.313-0.938-0.313
		c-1.146,0-3.621,3.387-7.422,10.156c-6.25,11.199-10.195,17.879-11.836,20.039s-3.451,3.242-5.43,3.242
		c-1.406,0-3.1-0.82-5.078-2.461c-1.98-1.641-2.969-3.32-2.969-5.039c0-1.666,0.938-3.918,2.813-6.758
		c1.875-2.838,5.703-8.555,11.484-17.148c10.313-15.26,19.01-29.583,26.094-42.969c11.197-21.301,18.307-33.867,21.328-37.695
		c3.02-3.828,5.338-5.742,6.953-5.742C212.43,76.969,215.008,77.906,216.727,79.781z M221.492,141.891
		c-1.824-4.166-4.506-11.797-8.047-22.891c-3.855-11.822-6.303-19.01-7.344-21.563c-2.865,6.042-7.293,14.609-13.281,25.703
		l-14.141,26.797c1.094-0.833,3.984-1.51,8.672-2.031c3.594-0.364,6.719-0.833,9.375-1.406
		C210.945,143.636,219.199,142.1,221.492,141.891z"/>
</g>
</svg>
